<svg id="Layer_1" data-name="Layer 1" xmlns="http://www.w3.org/2000/svg" width="64" height="64" viewBox="0 0 64 64"><defs><style>.cls-1{fill:#666;}</style></defs><title>file_attach</title><path id="file_attach" class="cls-1" d="M23,54H12a4,4,0,0,1-4-4V10a4,4,0,0,1,4-4,1,1,0,0,1,0,2,2,2,0,0,0-2,2V50a2,2,0,0,0,2,2H23A1,1,0,0,1,23,54ZM43,32a1,1,0,0,1-1-1V18.41L31.59,8H12a1,1,0,0,1,0-2H32a1,1,0,0,1,.71.29l11,11A1,1,0,0,1,44,18V31A1,1,0,0,1,43,32Zm0-12H34a4,4,0,0,1-4-4V7a1,1,0,0,1,2,0v9a2,2,0,0,0,2,2h9A1,1,0,0,1,43,20ZM32,60a6.1,6.1,0,0,1-4.23-1.68,5.66,5.66,0,0,1,0-8.23L45.49,33.4a5.13,5.13,0,0,1,7,0,4.73,4.73,0,0,1,0,6.87L38.8,53.13a4.09,4.09,0,0,1-5.62,0,3.8,3.8,0,0,1-.54-4.88l-3.5,3.3a3.66,3.66,0,0,0,0,5.34,4.14,4.14,0,0,0,5.69,0L47.32,45.31a1,1,0,0,1,1.36,1.47L36.22,58.33A6.06,6.06,0,0,1,32,60ZM42,39.76a1,1,0,0,1,.68,1.73l-8.12,7.56a1.8,1.8,0,0,0,0,2.62,2.08,2.08,0,0,0,2.86,0L51.14,38.82a2.73,2.73,0,0,0,0-4,3.11,3.11,0,0,0-4.27,0l-5.35,5A1,1,0,0,1,42,39.76Z"/></svg>