<svg id="Layer_1" data-name="Layer 1" xmlns="http://www.w3.org/2000/svg" width="64" height="64" viewBox="0 0 64 64"><defs><style>.cls-1{fill:#666;}</style></defs><title>postcard</title><path class="cls-1" d="M57,10H7a2.66,2.66,0,0,0-3,3V51c0,2.07.92,3,3,3H57c2,0,3-1,3-3V13A2.66,2.66,0,0,0,57,10Zm1,41c0,0.94-.06,1-1,1H7c-1,0-1,0-1-1V13c0-.89.11-1,1-1H57c0.89,0,1,.11,1,1V51Z"/><path class="cls-1" d="M53,18H45a1,1,0,0,0-1,1V29a1,1,0,0,0,1,1h8a1,1,0,0,0,1-1V19A1,1,0,0,0,53,18ZM52,28H46V20h6v8Z"/><path class="cls-1" d="M35,22H11a1,1,0,0,0,0,2H35A1,1,0,0,0,35,22Z"/><path class="cls-1" d="M35,28H11a1,1,0,0,0,0,2H35A1,1,0,0,0,35,28Z"/><path class="cls-1" d="M35,34H11a1,1,0,0,0,0,2H35A1,1,0,0,0,35,34Z"/><path class="cls-1" d="M27,40H11a1,1,0,0,0,0,2H27A1,1,0,0,0,27,40Z"/></svg>