<svg version="1" xmlns="http://www.w3.org/2000/svg" width="24" height="24" viewBox="0 0 24 24"><g><path d="M23.908 11.689c-.217-.273-5.374-6.689-11.892-6.689s-11.676 6.416-11.892 6.689c-.144.182-.144.439 0 .621.216.274 5.373 6.69 11.892 6.69s11.676-6.416 11.892-6.689c.144-.182.144-.44 0-.622zm-11.892 6.311c-5.247 0-9.734-4.729-10.845-6 1.111-1.271 5.598-6 10.845-6s9.734 4.729 10.845 6c-1.111 1.271-5.598 6-10.845 6zM12.016 7.5c-2.481 0-4.5 2.019-4.5 4.5s2.019 4.5 4.5 4.5 4.5-2.019 4.5-4.5-2.019-4.5-4.5-4.5zm0 8c-1.93 0-3.5-1.57-3.5-3.5s1.57-3.5 3.5-3.5 3.5 1.57 3.5 3.5-1.571 3.5-3.5 3.5z"/></g></svg>