<?xml version="1.0" standalone="no"?><!DOCTYPE svg PUBLIC "-//W3C//DTD SVG 1.1//EN" "http://www.w3.org/Graphics/SVG/1.1/DTD/svg11.dtd"><svg t="1545809311539" class="icon" style="" viewBox="0 0 1024 1024" version="1.1" xmlns="http://www.w3.org/2000/svg" p-id="3036" xmlns:xlink="http://www.w3.org/1999/xlink" width="200" height="200"><defs><style type="text/css"></style></defs><path d="M512 832c-176.448 0-320-143.552-320-320S335.552 192 512 192s320 143.552 320 320-143.552 320-320 320m0-704C300.256 128 128 300.256 128 512s172.256 384 384 384 384-172.256 384-384S723.744 128 512 128" p-id="3037" fill="#707070"></path><path d="M645.536 473.6h-256a32 32 0 0 0 0 64h256a32 32 0 0 0 0-64" p-id="3038" fill="#707070"></path></svg>