<svg version="1" xmlns="http://www.w3.org/2000/svg" width="24" height="24" viewBox="0 0 24 24"><path d="M22.038 3.039c-1.133-1.134-2.64-1.758-4.242-1.758-1.603 0-3.11.625-4.243 1.758l-12 12c-1.753 1.754-1.753 4.609 0 6.364.877.877 2.03 1.315 3.182 1.315s2.305-.439 3.183-1.316l11.482-11.519c.974-.976.974-2.561 0-3.535-.944-.944-2.592-.944-3.535 0l-8.501 8.5c-.195.195-.195.512 0 .707s.512.195.707 0l8.501-8.5c.565-.567 1.554-.566 2.121 0 .584.584.584 1.536 0 2.121l-11.483 11.519c-1.364 1.365-3.584 1.365-4.95 0-1.364-1.365-1.364-3.585 0-4.95l12-12c.945-.945 2.201-1.465 3.536-1.465s2.591.521 3.535 1.465c.945.944 1.465 2.2 1.465 3.535s-.52 2.591-1.465 3.535l-8.5 8.5c-.195.195-.195.512 0 .707s.512.195.707 0l8.5-8.5c1.133-1.133 1.758-2.639 1.758-4.242 0-1.602-.625-3.109-1.758-4.241z"/></svg>