<?xml version="1.0" standalone="no"?><!DOCTYPE svg PUBLIC "-//W3C//DTD SVG 1.1//EN" "http://www.w3.org/Graphics/SVG/1.1/DTD/svg11.dtd"><svg t="1545354541613" class="icon" style="" viewBox="0 0 1879 1024" version="1.1" xmlns="http://www.w3.org/2000/svg" p-id="1840" xmlns:xlink="http://www.w3.org/1999/xlink" width="366.9921875" height="200"><defs><style type="text/css"></style></defs><path d="M938.617341 45.280925c-106.987283 0-205.687861 35.810405-285.003468 96.184971-17.905202 13.613873-19.532948 39.953757-3.551445 55.93526 13.169942 13.169942 34.034682 14.649711 48.83237 3.255491 66.589595-50.608092 149.752601-80.795376 239.574566-80.795375 207.16763 0 377.932948 159.667052 395.542197 362.247399 1.627746 19.384971-0.295954 34.774566-0.295954 34.774566l-93.225434 0.739884 113.202313 225.516763c9.766474 0 150.788439-226.404624 150.788439-226.404624h-94.409249c0.443931-24.564162-1.183815-35.810405-1.627745-40.545665-20.716763-241.054335-223.593064-430.760694-469.82659-430.90867zM938.617341 913.905202c-219.00578 0-397.021965-178.164162-397.021965-397.021965v-0.443931l94.261271-1.035838-112.018497-224.924855-150.936416 226.256647h94.261272C467.015029 781.317919 692.087861 988.485549 938.617341 988.485549c110.982659 0 213.234682-38.621965 293.882081-102.991907 17.313295-13.909827 18.645087-39.80578 2.959538-55.49133-13.465896-13.465896-34.774566-14.649711-49.572255-2.811561-67.921387 54.307514-153.895954 86.714451-247.269364 86.714451z" fill="#1296db" p-id="1841"></path></svg>